<?xml version="1.0" standalone="no"?>
<!DOCTYPE svg PUBLIC "-//W3C//DTD SVG 20010904//EN"
 "http://www.w3.org/TR/2001/REC-SVG-20010904/DTD/svg10.dtd">
<svg version="1.0" xmlns="http://www.w3.org/2000/svg"
 width="400.000000pt" height="400.000000pt" viewBox="0 0 400.000000 400.000000"
 preserveAspectRatio="xMidYMid meet">
<metadata>
Created by potrace 1.14, written by Peter Selinger 2001-2017
</metadata>
<g transform="translate(0.000000,400.000000) scale(0.100000,-0.100000)"
fill="#000000" stroke="none">
<path d="M1917 3994 c-1 -1 -38 -4 -83 -8 -621 -48 -1209 -415 -1537 -958 -64
-106 -78 -134 -121 -229 -25 -57 -85 -222 -91 -249 -2 -8 -8 -35 -15 -60 -7
-25 -14 -54 -16 -65 -2 -11 -6 -31 -9 -45 -29 -130 -47 -467 -31 -560 3 -14 7
-50 10 -80 36 -324 196 -716 395 -963 105 -131 226 -255 331 -340 218 -178
547 -338 805 -393 171 -37 199 -39 480 -39 202 0 266 4 333 18 45 10 93 20
106 23 48 8 217 64 301 99 250 103 447 236 646 434 307 308 489 661 564 1096
11 65 15 154 15 325 -1 231 -4 255 -45 465 -15 80 -85 273 -141 392 -158 336
-436 644 -764 846 -197 121 -485 229 -700 262 -25 4 -53 9 -62 10 -58 11 -361
27 -371 19z"/>
</g>
</svg>
